# xmcd CD Database Entry
#
# Track frame offsets:
# 150
# 16649
# 49666
# 66649
# 95827
# 106523
# 130660
# 148696
# 170932
# 189310
# 197891
# 211272
# 224350
# 244062
# 262861
#
# Disc length: 3628 seconds
#
# Revision: 7
# Processed by: cddbd v1.4PL0 Copyright (c) Steve Scherf et al.
# Submitted via: tcd 2.0b
#
DISCID=db0e2a0f
DTITLE=Various Artist - WoW Worship [CD1]
DYEAR=1999
DGENRE=
TTITLE0=Andy Park - The River Is Here
TTITLE1=Jamie Harvill And Gary Sadler - Ancient Of Days
TTITLE2=Holland Davis - Let It Rise
TTITLE3=Darrell Evans - Let The River Flow
TTITLE4=Eddie Espinosa - Change My Heart, Oh God
TTITLE5=Matt Redman - The Heart Of Worship
TTITLE6=Darlene Zschech - Shout To The Lord
TTITLE7=Paul Baloche - Open The Eyes Of My Heart
TTITLE8=Brian Doerksen - Refiner's Fire
TTITLE9=Don Moen - Blessed Be The Name Of The Lord
TTITLE10=Laurie Klein - I Love You, Lord
TTITLE11=Terrye Coelhp Strom - Father, I Adore You
TTITLE12=Diane Ball - In His Time
TTITLE13=Henry Smith - Give Thanks
TTITLE14=Lynn Baird - Come Into His Presence
EXTD=YEAR: 1999
EXTT0=
EXTT1=
EXTT2=
EXTT3=
EXTT4=
EXTT5=
EXTT6=
EXTT7=
EXTT8=
EXTT9=
EXTT10=
EXTT11=
EXTT12=
EXTT13=
EXTT14=
PLAYORDER=
